<?xml version="1.0" encoding="UTF-8" standalone="no"?>
<!-- Created with Inkscape (http://www.inkscape.org/) -->
<svg
   xmlns:dc="http://purl.org/dc/elements/1.1/"
   xmlns:cc="http://web.resource.org/cc/"
   xmlns:rdf="http://www.w3.org/1999/02/22-rdf-syntax-ns#"
   xmlns:svg="http://www.w3.org/2000/svg"
   xmlns="http://www.w3.org/2000/svg"
   xmlns:sodipodi="http://inkscape.sourceforge.net/DTD/sodipodi-0.dtd"
   xmlns:inkscape="http://www.inkscape.org/namespaces/inkscape"
   id="svg2"
   sodipodi:version="0.32"
   inkscape:version="0.43"
   width="210mm"
   height="297mm"
   sodipodi:docbase="C:\Documents and Settings\Qualsevol Altre\Mis documentos\Les meues imatges"
   sodipodi:docname="Escut de Palma.svg">
  <metadata
     id="metadata7">
    <rdf:RDF>
      <cc:Work
         rdf:about="">
        <dc:format>image/svg+xml</dc:format>
        <dc:type
           rdf:resource="http://purl.org/dc/dcmitype/StillImage" />
      </cc:Work>
    </rdf:RDF>
  </metadata>
  <defs
     id="defs5" />
  <sodipodi:namedview
     inkscape:window-height="804"
     inkscape:window-width="1152"
     inkscape:pageshadow="2"
     inkscape:pageopacity="0.0"
     borderopacity="1.0"
     bordercolor="#666666"
     pagecolor="#ffffff"
     id="base"
     inkscape:zoom="0.3544407"
     inkscape:cx="367.71804"
     inkscape:cy="845.99835"
     inkscape:window-x="-4"
     inkscape:window-y="-4"
     inkscape:current-layer="svg2" />
  <path
     style="fill:#f27600;fill-opacity:1;fill-rule:evenodd;stroke:#000000;stroke-width:3;stroke-linecap:butt;stroke-linejoin:miter;stroke-opacity:1;stroke-miterlimit:4;stroke-dasharray:none"
     d="M 202.4316,393.5778 C 202.4316,393.5778 204.81212,388.55228 203.48961,383.70309 C 202.1671,378.8539 197.14158,374.18104 197.14158,374.18104 C 197.14158,374.18104 252.32884,357.4016 364.30635,357.25296 C 474.86808,357.10666 534.99781,378.06039 534.99781,378.06039 C 534.99781,378.06039 529.61962,381.85158 528.64978,387.93511 C 527.67994,394.01864 531.11846,402.39451 531.11846,402.39451 C 531.11846,402.39451 466.58016,377.09055 365.01169,375.94438 C 282.81565,375.01682 202.4316,393.5778 202.4316,393.5778 z "
     id="path19845"
     sodipodi:nodetypes="cscscscsc" />
  <path
     style="fill:#f27600;fill-opacity:1;fill-rule:evenodd;stroke:#000000;stroke-width:3;stroke-linecap:butt;stroke-linejoin:miter;stroke-opacity:1;stroke-miterlimit:4;stroke-dasharray:none"
     d="M 199.61026,397.10448 C 198.28776,409.44787 278.78429,423.46644 361.83768,425.31795 C 444.89106,427.16946 530.5013,416.85391 531.8238,404.51052 C 533.1463,392.16713 449.47575,374.62188 367.1277,375.94438 C 284.0644,377.27837 200.93277,384.76109 199.61026,397.10448 z "
     id="path18968"
     sodipodi:nodetypes="cssss" />
  <path
     style="fill:#be0004;fill-opacity:1;fill-rule:evenodd;stroke:#000000;stroke-width:3;stroke-linecap:butt;stroke-linejoin:miter;stroke-opacity:1;stroke-miterlimit:4;stroke-dasharray:none"
     d="M 217.59634,404.15785 C 217.91673,414.37962 293.86086,423.99544 363.95368,425.67061 C 434.0465,427.34578 512.9457,419.67366 513.48504,410.15321 C 514.1634,398.17877 433.69384,387.84695 364.30636,389.34578 C 294.20988,390.85993 217.23148,392.51717 217.59634,404.15785 z "
     id="path18970"
     sodipodi:nodetypes="cssss" />
  <path
     style="fill:#f27600;fill-opacity:1;fill-rule:evenodd;stroke:#000000;stroke-width:5;stroke-linecap:butt;stroke-linejoin:miter;stroke-opacity:1;stroke-miterlimit:4;stroke-dasharray:none"
     d="M 366.08124,440.89679 C 366.08124,440.89679 369.32311,426.43309 381.04369,417.95437 C 392.76428,409.47565 412.96358,406.98191 412.96358,406.98191 C 412.96358,406.98191 402.48986,425.43559 402.98861,437.9043 C 403.48736,450.373 405.9811,453.86424 414.95857,456.85673 C 423.93604,459.84922 429.92102,455.11112 438.89849,449.87426 C 447.87596,444.63741 455.1078,424.93685 471.81587,435.90931 C 488.52394,446.88177 502.33718,470.58106 517.70072,479.79916 C 518.94759,480.54728 517.95009,491.02099 512.71323,494.7616 C 507.47637,498.50221 505.23201,499.49971 496.75329,494.7616 C 488.27457,490.02349 478.79835,475.80917 478.79835,475.80917 C 478.79835,475.80917 461.34216,480.54728 459.84591,489.77412 C 458.34967,499.00096 457.35217,505.73406 472.81337,512.71654 C 488.27457,519.69902 504.73326,521.19526 521.6907,517.70402 C 538.64814,514.21278 540.64314,498.75159 540.64314,498.75159 L 570.56803,524.6865 C 570.56803,524.6865 555.10683,528.67649 550.6181,542.64144 C 546.12937,556.60639 542.38876,572.56634 552.6131,580.54631 C 562.83744,588.52628 579.29613,581.79318 591.51546,574.56133 C 603.73479,567.32948 601.49043,551.61891 601.49043,551.61891 C 601.49043,551.61891 630.91657,566.83073 640.39279,579.54881 C 649.86901,592.26689 642.38779,592.01752 639.3953,602.49123 C 636.40281,612.96494 628.42283,621.44367 628.42283,621.44367 L 644.38278,638.40111 L 623.43535,658.35104 C 623.43535,658.35104 633.90907,655.60792 642.38779,666.33101 C 650.86651,677.0541 653.859,684.03657 657.35024,701.24339 C 660.84148,718.45021 656.35274,735.15828 656.35274,735.15828 L 635.40531,738.15077 C 635.40531,738.15077 629.66971,757.35257 618.44787,765.08317 C 607.22603,772.81377 590.76734,767.82629 590.76734,767.82629 C 590.76734,767.82629 598.2548,744.84148 588.52297,733.16328 C 576.05426,718.20084 559.59557,715.45772 544.63312,729.1733 C 534.1292,738.80189 535.65565,753.11321 541.64063,768.07566 C 547.62561,783.03811 568.57304,789.02309 568.57304,789.02309 C 568.57304,789.02309 555.85496,804.23491 541.64063,805.98053 C 527.4263,807.72615 511.71574,796.00557 511.71574,796.00557 C 511.71574,796.00557 519.94508,806.47928 518.69821,819.94548 C 517.45134,833.41168 517.95008,834.90793 506.72825,849.87038 C 495.50642,864.83283 473.81087,879.79528 473.81087,879.79528 C 473.81087,879.79528 478.29961,858.34911 467.82589,853.11225 C 457.35217,847.87539 438.86762,845.68745 427.92602,857.85035 C 418.39475,868.44551 419.69668,877.05217 425.93103,891.76524 C 432.16538,906.47831 452.86344,916.70265 452.86344,916.70265 C 452.86344,916.70265 429.67165,926.92699 411.96608,921.69013 C 394.26051,916.45327 382.04118,895.75522 382.04118,895.75522 C 382.04118,895.75522 376.80432,908.72267 379.04869,921.69013 C 381.29306,934.65758 391.01865,947.62504 391.01865,947.62504 C 391.01865,947.62504 374.80933,941.39068 360.09626,941.64006 C 345.38319,941.88943 332.16636,948.62254 332.16636,948.62254 C 332.16636,948.62254 340.3957,934.65758 342.14132,921.69013 C 343.88694,908.72267 339.14883,896.75272 339.14883,896.75272 C 339.14883,896.75272 332.16635,914.2089 313.21392,918.69764 C 294.26148,923.18638 263.33909,914.70766 263.33909,914.70766 C 263.33909,914.70766 286.53088,907.72518 292.26649,892.76273 C 298.0021,877.80028 296.0071,865.0822 286.28151,854.85786 C 276.55592,844.63352 262.59097,845.88039 253.36413,851.86537 C 244.13729,857.85035 249.37414,878.79778 249.37414,878.79778 C 249.37414,878.79778 230.17234,867.82532 218.45175,852.86287 C 206.73117,837.90042 204.73617,834.40919 202.4918,818.94799 C 200.24743,803.48679 209.47428,791.01808 209.47428,791.01808 C 209.47428,791.01808 192.51683,800.24493 178.55188,798.99806 C 164.58693,797.75119 153.61447,786.0306 153.61447,786.0306 C 153.61447,786.0306 176.55689,775.55689 182.54187,761.09319 C 188.52685,746.62949 188.27748,736.9039 177.55439,728.1758 C 166.8313,719.4477 150.62198,718.94896 139.64952,726.18081 C 128.67706,733.41266 133.66454,757.1032 133.66454,757.1032 C 133.66454,757.1032 113.96399,756.85383 102.74215,749.12323 C 91.520314,741.39263 88.777194,726.18081 88.777194,726.18081 L 69.824759,728.1758 C 69.824759,728.1758 64.340942,704.90256 70.822256,685.28345 C 80.0491,657.35355 102.74215,652.36606 102.74215,652.36606 L 81.794718,632.41613 L 99.749656,617.45368 C 99.749656,617.45368 93.515303,610.22184 89.774691,601.49374 C 86.034079,592.76564 81.046596,583.78818 94.762174,566.58136 C 105.1591,553.53794 124.68707,544.63643 124.68707,544.63643 C 124.68707,544.63643 123.4402,563.83824 135.65953,571.56884 C 147.87887,579.29944 164.51347,584.06941 173.5644,575.55883 C 190.27247,559.84826 179.05064,554.86078 174.5619,540.64645 C 170.07317,526.43212 155.60946,518.70152 155.60946,518.70152 L 187.52935,493.76411 C 187.52935,493.76411 194.7612,512.96591 211.46927,517.70402 C 228.17734,522.44213 242.14229,521.69401 254.36162,512.71654 C 266.58095,503.73907 266.58095,494.01348 260.3466,481.79415 C 254.11225,469.57482 229.42421,463.83921 229.42421,463.83921 C 229.42421,463.83921 244.6392,448.25236 254.36162,439.89929 C 272.06718,424.68747 280.54591,451.61988 296.25648,454.86174 C 311.96705,458.10361 309.97206,458.10361 317.20391,452.86675 C 324.43576,447.62989 325.18388,444.88677 325.18388,433.91431 C 325.18388,422.94185 317.20391,408.9769 317.20391,408.9769 C 317.20391,408.9769 334.90947,411.96939 347.1288,419.94936 C 359.34813,427.92933 366.08124,440.89679 366.08124,440.89679 z "
     id="path1349"
     sodipodi:nodetypes="cscssssssscsssccssscsscccssccscssscscsscssscscscscscscssscsscscssscsccscccsscsssccssscsssscsc" />
  <path
     style="fill:#f27600;fill-opacity:1;fill-rule:evenodd;stroke:#000000;stroke-width:5;stroke-linecap:butt;stroke-linejoin:miter;stroke-opacity:1;stroke-miterlimit:4;stroke-dasharray:none"
     d="M 124.93644,544.63644 C 124.93644,544.63644 141.64451,537.40459 149.62448,545.63393 C 157.60445,553.86327 155.60946,578.55131 155.60946,578.55131 C 155.60946,578.55131 139.64952,574.8107 131.66955,566.58135 C 123.68958,558.35201 124.93644,544.63644 124.93644,544.63644 z "
     id="path2225"
     sodipodi:nodetypes="cscsc" />
  <path
     style="fill:#f27600;fill-opacity:1;fill-rule:evenodd;stroke:#000000;stroke-width:5;stroke-linecap:butt;stroke-linejoin:miter;stroke-opacity:1;stroke-miterlimit:4;stroke-dasharray:none"
     d="M 132.16829,756.85383 L 158.60195,753.11321 C 158.60195,753.11321 142.89138,736.65452 137.15577,731.41766 C 130.67205,732.66454 132.16829,756.85383 132.16829,756.85383 z "
     id="path3100"
     sodipodi:nodetypes="cccc" />
  <path
     style="fill:#f27600;fill-opacity:1;fill-rule:evenodd;stroke:#000000;stroke-width:5;stroke-linecap:butt;stroke-linejoin:miter;stroke-opacity:1;stroke-miterlimit:4;stroke-dasharray:none"
     d="M 250.37164,879.79528 C 254.86038,883.03714 265.33409,879.79527 269.32407,871.8153 C 273.31406,863.83533 272.31655,852.61349 267.82782,849.37163 C 263.33908,846.12977 253.6135,848.37414 249.62351,856.35411 C 245.63353,864.33408 245.88291,876.55342 250.37164,879.79528 z "
     id="path3975"
     sodipodi:nodetypes="cssss" />
  <path
     style="fill:#f27600;fill-opacity:1;fill-rule:evenodd;stroke:#000000;stroke-width:5;stroke-linecap:butt;stroke-linejoin:miter;stroke-opacity:1;stroke-miterlimit:4;stroke-dasharray:none"
     d="M 229.92296,462.34295 C 229.92296,462.34295 214.46176,472.81666 212.96552,475.80915 C 209.64969,482.44081 210.97053,487.65442 216.45676,491.27035 C 221.94299,494.88628 225.06017,493.63941 233.4142,488.77661 C 241.76823,483.91382 250.37164,472.56729 250.37164,472.56729 L 229.92296,462.34295 z "
     id="path1316"
     sodipodi:nodetypes="cssscc" />
  <path
     style="fill:none;fill-opacity:0.75;fill-rule:evenodd;stroke:#000000;stroke-width:5;stroke-linecap:butt;stroke-linejoin:miter;stroke-opacity:1;stroke-miterlimit:4;stroke-dasharray:none"
     d="M 479.29711,475.55978 C 482.12335,474.22979 485.44834,471.65292 488.27458,470.32293 C 490.01042,469.50606 492.38692,469.29484 494.25956,468.82668 C 496.37015,468.29903 498.42269,467.41184 500.74328,466.83169"
     id="path3064"
     sodipodi:nodetypes="cssc" />
  <path
     style="fill:#f27600;fill-opacity:1;fill-rule:evenodd;stroke:#000000;stroke-width:5;stroke-linecap:butt;stroke-linejoin:miter;stroke-opacity:1;stroke-miterlimit:4;stroke-dasharray:none"
     d="M 457.85093,850.36912 C 451.11783,852.11474 446.87847,864.45876 447.37722,873.81029 C 447.87597,883.16182 453.06834,889.33931 459.84592,887.77525 C 469.57151,885.53088 475.30713,876.17935 474.80838,866.82782 C 474.30963,857.47629 464.58403,848.6235 457.85093,850.36912 z "
     id="path3939"
     sodipodi:nodetypes="cssss" />
  <path
     style="fill:#f27600;fill-opacity:1;fill-rule:evenodd;stroke:#000000;stroke-width:5;stroke-linecap:round;stroke-linejoin:bevel;stroke-opacity:1;stroke-miterlimit:4;stroke-dasharray:none"
     d="M 591.01673,768.5744 C 564.58307,761.59193 564.58307,761.09318 564.58307,761.09318 C 564.58307,761.09318 583.66019,742.76418 590.51798,738.15076 C 595.87952,741.76668 591.01673,768.5744 591.01673,768.5744 z "
     id="path4814"
     sodipodi:nodetypes="cccc" />
  <path
     style="fill:#f27600;fill-opacity:1;fill-rule:evenodd;stroke:#000000;stroke-width:5;stroke-linecap:butt;stroke-linejoin:miter;stroke-opacity:1;stroke-miterlimit:4;stroke-dasharray:none"
     d="M 602.73731,552.11764 C 602.73731,552.11764 587.02674,538.52675 576.05428,550.6214 C 568.64329,558.79033 572.56304,583.04004 572.56304,583.04004 C 572.56304,583.04004 586.528,581.66848 594.00922,573.56382 C 601.49045,565.45916 602.73731,552.11764 602.73731,552.11764 z "
     id="path5689"
     sodipodi:nodetypes="cscsc" />
  <path
     style="fill:#5da2ff;fill-opacity:1;fill-rule:evenodd;stroke:#000000;stroke-width:5;stroke-linecap:butt;stroke-linejoin:miter;stroke-opacity:1;stroke-miterlimit:4;stroke-dasharray:none"
     d="M 147.62949,657.35354 L 359.09877,858.3491 L 576.55303,658.35103 L 360.59501,457.85422 L 147.62949,657.35354 z "
     id="path6565" />
  <path
     style="fill:#fefb00;fill-opacity:1;fill-rule:evenodd;stroke:#000000;stroke-width:5;stroke-linecap:butt;stroke-linejoin:bevel;stroke-opacity:1;stroke-miterlimit:4;stroke-dasharray:none"
     d="M 359.59752,858.3491 L 358.60002,657.35354 L 576.05428,658.35103 L 359.59752,858.3491 z "
     id="path7440" />
  <path
     style="fill:#be0004;fill-opacity:1;fill-rule:evenodd;stroke:#000000;stroke-width:0;stroke-linecap:butt;stroke-linejoin:miter;stroke-opacity:1;stroke-miterlimit:4;stroke-dasharray:none"
     d="M 381.79181,659.97197 L 382.04119,834.40918 L 408.35016,809.84583 L 408.47485,660.09665 L 381.79181,659.97197 z "
     id="path8315"
     sodipodi:nodetypes="ccccc" />
  <path
     style="fill:#be0004;fill-opacity:1;fill-rule:evenodd;stroke:#000000;stroke-width:0;stroke-linecap:butt;stroke-linejoin:miter;stroke-opacity:1;stroke-miterlimit:4;stroke-dasharray:none"
     d="M 425.43229,660.09665 L 425.68166,794.13526 L 451.86595,769.94596 L 451.61658,660.22134 L 425.43229,660.09665 z "
     id="path8317"
     sodipodi:nodetypes="ccccc" />
  <path
     style="fill:#be0004;fill-opacity:1;fill-rule:evenodd;stroke:#000000;stroke-width:0;stroke-linecap:butt;stroke-linejoin:miter;stroke-opacity:1;stroke-miterlimit:4;stroke-dasharray:none"
     d="M 469.32214,660.47071 L 469.32214,753.98602 L 496.7533,728.1758 L 496.37924,660.34603 L 469.32214,660.47071 z "
     id="path8319"
     sodipodi:nodetypes="ccccc" />
  <path
     style="fill:#be0004;fill-opacity:1;fill-rule:evenodd;stroke:#000000;stroke-width:0;stroke-linecap:butt;stroke-linejoin:miter;stroke-opacity:1;stroke-miterlimit:4;stroke-dasharray:none"
     d="M 514.33418,660.5954 L 514.70824,711.84179 L 540.64315,687.77718 L 540.39377,660.72009 L 514.33418,660.5954 z "
     id="path8321"
     sodipodi:nodetypes="ccccc" />
  <path
     style="fill:#fefb00;fill-opacity:1;fill-rule:evenodd;stroke:#000000;stroke-width:5;stroke-linecap:butt;stroke-linejoin:bevel;stroke-opacity:1;stroke-miterlimit:4;stroke-dasharray:none"
     d="M 148.62699,657.85228 L 357.86443,656.9101 L 359.09877,459.35046 L 148.62699,657.85228 z "
     id="path9196"
     sodipodi:nodetypes="cccc" />
  <path
     style="fill:#be0004;fill-opacity:1;fill-rule:evenodd;stroke:#000000;stroke-width:0;stroke-linecap:butt;stroke-linejoin:miter;stroke-opacity:1;stroke-miterlimit:4;stroke-dasharray:none"
     d="M 182.41718,629.42363 L 182.91593,654.73511 L 206.10773,654.8598 L 205.98305,607.10464 L 182.41718,629.42363 z "
     id="path10071"
     sodipodi:nodetypes="ccccc" />
  <path
     style="fill:#be0004;fill-opacity:1;fill-rule:evenodd;stroke:#000000;stroke-width:0;stroke-linecap:butt;stroke-linejoin:miter;stroke-opacity:1;stroke-miterlimit:4;stroke-dasharray:none"
     d="M 225.30954,588.77565 L 225.43423,654.73511 L 250.7457,654.73511 L 250.7457,564.71104 L 225.30954,588.77565 z "
     id="path10073"
     sodipodi:nodetypes="ccccc" />
  <path
     style="fill:#be0004;fill-opacity:1;fill-rule:evenodd;stroke:#000000;stroke-width:0;stroke-linecap:butt;stroke-linejoin:miter;stroke-opacity:1;stroke-miterlimit:4;stroke-dasharray:none"
     d="M 269.19939,547.50422 L 268.95002,654.73511 L 294.51086,654.36105 L 294.63555,523.43962 L 269.19939,547.50422 z "
     id="path10075"
     sodipodi:nodetypes="ccccc" />
  <path
     style="fill:#be0004;fill-opacity:1;fill-rule:evenodd;stroke:#000000;stroke-width:0;stroke-linecap:butt;stroke-linejoin:miter;stroke-opacity:1;stroke-miterlimit:4;stroke-dasharray:none"
     d="M 313.08924,506.23281 C 312.59049,508.2278 313.33861,654.61042 313.33861,654.61042 L 337.27854,654.36105 L 337.15385,483.41507 L 313.08924,506.23281 z "
     id="path10077"
     sodipodi:nodetypes="ccccc" />
  <path
     style="fill:#5da2ff;fill-opacity:1;fill-rule:evenodd;stroke:#000000;stroke-width:5;stroke-linecap:butt;stroke-linejoin:bevel;stroke-opacity:1;stroke-miterlimit:4;stroke-dasharray:none"
     d="M 148.12824,657.35354 L 358.10127,656.87985 L 358.92244,859.0795 L 148.12824,657.35354 z "
     id="path10952"
     sodipodi:nodetypes="cccc" />
  <path
     style="fill:#f27600;fill-opacity:1;fill-rule:evenodd;stroke:#000000;stroke-width:1px;stroke-linecap:butt;stroke-linejoin:miter;stroke-opacity:1"
     d="M 247.37915,750.12072 L 247.8779,727.1783 L 242.39167,727.1783 L 243.88791,717.20333 L 277.8028,716.70458 L 277.8028,728.67454 L 308.72519,728.67454 L 310.72019,717.20333 L 343.13882,717.20333 L 344.13632,729.17329 L 338.65009,729.17329 L 338.65009,759.09819 C 338.65009,759.09819 343.88695,760.09569 346.63006,762.58943 C 349.37318,765.08317 349.62255,769.07315 349.62255,769.07315 L 267.82783,768.5744 L 247.37915,750.12072 z "
     id="path11827"
     sodipodi:nodetypes="ccccccccccccsccc" />
  <path
     style="fill:#be0004;fill-opacity:1;fill-rule:evenodd;stroke:#000000;stroke-width:1px;stroke-linecap:butt;stroke-linejoin:miter;stroke-opacity:1"
     d="M 282.29153,768.781 L 282.29153,750.03514 C 282.29153,750.03514 281.52117,740.29642 293.76274,740.14575 C 304.41816,740.01894 303.73771,749.62197 303.73771,749.62197 L 303.88379,768.75073 L 282.29153,768.781 z "
     id="path11829"
     sodipodi:nodetypes="ccsccc" />
  <path
     style="fill:#000000;fill-opacity:1;fill-rule:evenodd;stroke:#000000;stroke-width:1px;stroke-linecap:butt;stroke-linejoin:miter;stroke-opacity:1"
     d="M 263.3391,743.63699 L 263.3391,732.16578 L 269.79257,732.28161 L 269.82283,743.78307 L 263.3391,743.63699 z "
     id="path11831"
     sodipodi:nodetypes="ccccc" />
  <path
     style="fill:#000000;fill-opacity:1;fill-rule:evenodd;stroke:#000000;stroke-width:1px;stroke-linecap:butt;stroke-linejoin:miter;stroke-opacity:1"
     d="M 322.89674,732.31186 L 322.57432,744.63449 L 327.14863,744.66474 L 327.17888,732.16578 L 322.89674,732.31186 z "
     id="path11833"
     sodipodi:nodetypes="ccccc" />
  <path
     style="fill:none;fill-opacity:0.75;fill-rule:evenodd;stroke:#000000;stroke-width:1.7;stroke-linecap:butt;stroke-linejoin:miter;stroke-opacity:1;stroke-miterlimit:4;stroke-dasharray:none"
     d="M 294.8307,728.08368 L 294.3017,695.46186"
     id="path11849" />
  <path
     style="fill:none;fill-opacity:0.75;fill-rule:evenodd;stroke:#000000;stroke-width:1px;stroke-linecap:butt;stroke-linejoin:miter;stroke-opacity:1"
     d="M 284.07432,707.80525 C 284.13309,707.92281 284.25065,708.28935 284.25065,708.15792 C 284.25065,706.81159 284.45905,705.73732 284.77965,704.45491 C 285.23934,702.61614 285.74796,701.81296 286.54299,700.22289 C 287.20989,698.88908 287.91994,697.94741 289.36434,697.22521 C 290.95243,696.43116 293.22977,696.23674 294.47803,696.34353 C 294.47803,696.34827 291.44987,695.28553 289.18801,695.28553 C 286.67516,695.28553 284.64388,695.74003 282.66364,697.22521 C 281.32347,698.23034 280.27001,699.19112 279.48963,700.75189 C 279.25305,701.22504 279.36133,701.82569 279.48963,702.3389"
     id="path11851" />
  <path
     style="fill:none;fill-opacity:0.75;fill-rule:evenodd;stroke:#000000;stroke-width:1px;stroke-linecap:butt;stroke-linejoin:miter;stroke-opacity:1"
     d="M 276.49195,691.58251 C 278.16367,690.32872 280.19,689.9955 282.48731,689.9955 C 285.51477,689.9955 288.31393,691.26556 290.59868,693.16952 C 290.95135,693.46341 291.28943,693.77575 291.65668,694.05119 C 292.6215,694.77481 293.76235,697.59857 294.3017,696.51987 C 292.95878,696.51987 293.45961,693.93423 292.71469,692.81685 C 290.56405,689.59089 287.97623,687.59912 285.66132,684.70548 C 284.67677,683.47479 282.72601,682.94214 281.25297,682.94214"
     id="path11853" />
  <path
     style="fill:none;fill-opacity:0.75;fill-rule:evenodd;stroke:#000000;stroke-width:1px;stroke-linecap:butt;stroke-linejoin:miter;stroke-opacity:1"
     d="M 285.13232,678.18112 C 285.33651,678.45336 285.50473,678.78135 285.83766,679.23912 C 288.12844,682.38895 290.43458,686.98128 292.00935,690.52451 C 292.56942,691.78466 292.90806,695.65949 293.59636,696.51987 C 293.03891,695.75338 294.10484,694.63339 293.94903,693.69852 C 293.16321,688.98364 293.6489,684.13149 291.83302,679.59179 C 291.59453,678.99557 291.73138,678.98196 291.65668,678.53379"
     id="path11855" />
  <path
     style="fill:none;fill-opacity:0.75;fill-rule:evenodd;stroke:#000000;stroke-width:1px;stroke-linecap:butt;stroke-linejoin:miter;stroke-opacity:1"
     d="M 298.71005,680.47346 C 298.65127,680.59102 298.65127,680.76735 298.53372,680.82613 C 297.29501,681.44548 295.3597,683.08632 295.3597,684.88181 C 295.3597,685.11693 295.4107,685.35764 295.3597,685.58715 C 295.24214,686.11615 295.11331,686.64278 295.00703,687.17416 C 294.61676,689.12554 293.63348,694.58482 294.47803,696.6962 C 295.18656,696.34194 297.38403,692.14676 297.82838,691.40618 C 298.71043,689.9361 300.85166,687.25592 302.5894,686.82149 C 302.98323,686.72303 303.32214,686.57724 303.64741,686.46882"
     id="path11857" />
  <path
     style="fill:none;fill-opacity:0.75;fill-rule:evenodd;stroke:#000000;stroke-width:1px;stroke-linecap:butt;stroke-linejoin:miter;stroke-opacity:1"
     d="M 308.23209,694.58019 C 307.86246,694.39538 306.62114,693.52219 306.11608,693.52219 C 303.96779,693.52219 302.59699,693.60656 300.64973,694.58019 C 299.11997,695.34507 295.56344,697.17427 294.65436,697.40154 C 297.33293,697.40154 300.5232,699.44083 301.70773,701.80989 C 302.49016,703.37475 303.47551,704.99278 304.17641,706.39458 C 304.28479,706.61134 304.29396,706.86481 304.35274,707.09992"
     id="path11859" />
  <path
     style="fill:none;fill-opacity:0.75;fill-rule:evenodd;stroke:#000000;stroke-width:1px;stroke-linecap:butt;stroke-linejoin:miter;stroke-opacity:1"
     d="M 295.18337,697.75421 C 295.65943,698.70634 297.29287,697.40154 298.35738,697.40154 C 300.25167,697.40154 303.56121,697.69806 304.52908,698.98855 C 305.362,700.09911 306.36844,701.35691 307.35042,702.3389 C 308.94296,703.93143 307.36826,702.37456 307.70309,703.04423"
     id="path11861" />
  <path
     style="fill:none;fill-opacity:0.75;fill-rule:evenodd;stroke:#000000;stroke-width:1px;stroke-linecap:butt;stroke-linejoin:miter;stroke-opacity:1"
     d="M 294.3017,698.10688 C 295.65775,699.46293 297.69572,701.72124 299.23905,703.57323 C 299.95918,704.43739 300.29706,705.95837 300.29706,706.74725"
     id="path11863" />
  <path
     style="fill:none;fill-opacity:0.75;fill-rule:evenodd;stroke:#000000;stroke-width:1px;stroke-linecap:butt;stroke-linejoin:miter;stroke-opacity:1"
     d="M 293.59636,698.28321 C 294.24375,699.06008 291.64797,699.17941 291.12768,700.04655 C 290.41932,701.22716 290.16386,702.397 289.89334,703.74957 C 289.66256,704.90348 289.54067,706.06937 289.54067,707.27625"
     id="path11865" />
  <path
     style="fill:none;fill-opacity:0.75;fill-rule:evenodd;stroke:#000000;stroke-width:1px;stroke-linecap:butt;stroke-linejoin:miter;stroke-opacity:1"
     d="M 349.49428,769.16954 C 349.88995,769.16954 351.38464,769.16954 352.31563,769.16954 C 353.28093,769.16954 354.01923,768.9932 354.96064,768.9932 C 355.34383,768.9932 355.64351,768.81687 356.19498,768.81687"
     id="path11869" />
  <path
     style="fill:none;fill-opacity:0.75;fill-rule:evenodd;stroke:#000000;stroke-width:1.7;stroke-linecap:butt;stroke-linejoin:miter;stroke-opacity:1;stroke-miterlimit:4;stroke-dasharray:none"
     d="M 272.96526,774.28323 C 273.29885,773.63504 274.51226,773.24523 275.25761,772.87256 C 276.08173,772.46049 276.49835,772.16722 277.54995,772.16722 C 278.52302,772.16722 279.47447,772.33976 280.19496,772.51989 C 280.44998,772.58364 280.66519,772.755 280.9003,772.87256 C 282.06495,773.45488 282.26262,773.80731 283.01631,774.81223 C 283.64958,775.65659 284.16038,776.3541 284.95599,776.75191 C 285.86277,777.2053 286.68984,777.3617 287.77733,777.63358 C 288.83875,777.89893 289.95527,777.45724 290.95135,777.45724 C 291.3815,777.45724 292.6619,776.33746 293.24369,776.04657 C 294.12881,775.60401 295.79494,773.84799 296.59404,773.04889 C 297.54973,772.0932 298.68429,772.16722 299.94439,772.16722 C 300.91012,772.16722 301.90307,772.12789 302.76574,772.34355 C 303.52842,772.53422 304.50902,773.9105 305.05808,774.45956 C 305.76491,775.16639 306.96285,775.94095 307.87943,776.39924 C 308.89033,776.90469 309.40025,777.63358 310.70077,777.63358 C 311.73353,777.63358 312.63284,777.46105 313.34578,777.10457 C 314.02767,776.76363 314.76304,776.21632 315.28546,775.6939 C 315.96746,775.0119 317.02303,774.29869 317.93047,773.75423 C 319.09814,773.05363 319.37213,772.69622 320.75182,772.69622 C 321.84949,772.69622 322.48621,772.67451 323.2205,773.22522 C 324.21943,773.97442 325.14259,773.91298 326.04184,774.81223 C 326.84926,775.61965 327.55829,776.27579 328.51052,776.75191 C 329.6216,777.30745 330.46036,777.41062 331.68454,777.10457 C 332.7257,776.84428 333.48699,776.30129 334.50588,776.04657 C 335.19551,775.87416 336.45741,774.80037 336.97456,774.28323 C 337.76284,773.49495 338.3746,773.31605 339.44324,773.04889 C 340.32556,772.82831 341.81648,773.02503 342.61725,773.22522 C 343.39741,773.42026 344.3476,774.05456 345.26227,774.28323 C 345.8909,774.44039 346.74772,775.44094 347.20194,776.04657 C 347.8802,776.95091 348.97621,777.19547 350.02329,777.45724 C 350.50456,777.57756 351.89436,777.28091 352.6683,777.28091 C 353.24959,777.28091 354.29452,776.4678 354.78431,776.2229 C 355.5813,775.82441 356.08723,775.44898 356.72398,774.81223"
     id="path13645" />
  <path
     style="fill:none;fill-opacity:0.75;fill-rule:evenodd;stroke:#000000;stroke-width:1.7;stroke-linecap:butt;stroke-linejoin:miter;stroke-opacity:1;stroke-miterlimit:4;stroke-dasharray:none"
     d="M 280.9003,781.8656 C 281.96482,781.33334 282.74335,783.51662 283.89798,783.80527 C 284.153,783.86903 284.36821,784.04038 284.60332,784.15794 C 285.70589,784.70923 287.16264,784.51061 288.48267,784.51061 C 289.75001,784.51061 290.61922,783.71197 291.65668,783.4526 C 292.70173,783.19134 293.51915,781.96854 294.12536,781.16026 C 294.98803,780.01004 296.63714,779.39692 298.00471,779.39692 C 299.18968,779.39692 300.1849,778.88396 301.5314,779.22058 C 302.8121,779.54076 303.61401,780.47396 304.52908,781.16026 C 306.37768,782.54672 307.18863,784.33428 309.8191,784.33428 C 311.24689,784.33428 312.64973,784.4178 313.87479,783.80527 C 315.05382,783.21576 315.80296,782.46973 316.87247,782.04193 C 319.71384,780.90538 320.85145,780.3432 324.10217,780.80759 C 326.07844,781.08992 328.05372,782.86866 330.09753,783.4526 C 330.33055,783.51918 330.56775,783.57016 330.80286,783.62894 C 332.12351,783.9591 333.77414,783.64214 334.85855,783.09994 C 335.98855,782.53494 336.913,782.45616 337.85623,781.51293 C 339.70702,779.66214 343.40661,780.40877 345.61493,781.51293 C 347.43886,782.42489 348.4075,783.22949 349.84695,783.80527 C 350.61717,784.11336 351.97712,783.98161 353.02097,783.98161 C 353.98237,783.98161 354.74242,783.85983 355.66598,783.62894 C 356.03111,783.53766 356.24656,783.14942 356.54765,782.9236"
     id="path13647" />
  <path
     style="fill:none;fill-opacity:0.75;fill-rule:evenodd;stroke:#000000;stroke-width:1.7;stroke-linecap:butt;stroke-linejoin:miter;stroke-opacity:1;stroke-miterlimit:4;stroke-dasharray:none"
     d="M 291.48035,791.21131 C 293.37035,790.73881 294.27194,791.0132 295.8887,789.80063 C 297.06166,788.92092 297.14007,787.85245 298.18105,787.33196 C 299.2973,786.77383 300.53727,786.99526 301.88406,787.33196 C 303.33241,787.69404 304.23901,788.45027 305.41075,788.91896 C 306.49663,789.35332 307.2153,789.69929 308.05576,790.32964 C 308.91002,790.97033 310.39145,791.03497 311.58244,791.03497 C 312.75205,791.03497 314.32629,790.78985 315.46179,790.50597 C 316.73891,790.18669 318.29832,788.73504 319.69381,788.03729 C 320.86147,787.45346 321.50954,787.33196 322.86783,787.33196 C 324.05611,787.33196 325.0213,787.70335 326.04184,788.21363 C 327.04359,788.7145 327.71995,789.51483 328.86319,789.80063 C 329.79195,790.03282 330.70396,790.65758 331.5082,790.85864 C 332.6275,791.13846 333.80388,791.28051 334.85855,790.85864 C 336.05725,790.37916 337.21741,790.26776 338.38523,789.80063 C 340.37869,789.00325 341.52716,788.56629 343.85159,788.56629 C 345.24828,788.56629 346.60562,789.23797 347.73094,789.80063 C 348.84085,790.35559 349.94417,790.85864 351.25763,790.85864 C 352.37441,790.85864 353.49119,790.85864 354.60798,790.85864 C 355.51669,790.85864 356.54568,790.37421 357.42932,790.1533"
     id="path13649" />
  <path
     style="fill:none;fill-opacity:0.75;fill-rule:evenodd;stroke:#000000;stroke-width:1.7;stroke-linecap:butt;stroke-linejoin:miter;stroke-opacity:1;stroke-miterlimit:4;stroke-dasharray:none"
     d="M 298.00471,797.383 C 298.5548,797.24548 299.53369,795.10516 301.00239,794.73799 C 302.38192,794.39311 304.33255,794.73799 305.76342,794.73799 C 306.74764,794.73799 308.06245,796.06384 308.93743,796.50133 C 310.10492,797.08508 311.03586,797.41124 312.28778,797.912 C 313.54708,798.41573 315.85838,798.08834 317.22514,798.08834 C 319.20378,798.08834 319.37805,797.54088 320.75182,796.854 C 321.71773,796.37104 322.1488,795.40266 323.39683,795.09066 C 324.3946,794.84122 325.3899,794.88974 326.39451,795.09066 C 327.67281,795.34632 328.79525,796.52843 330.09753,796.854 C 331.04496,797.09086 331.99611,797.81356 333.09521,798.08834 C 334.13301,798.34779 336.02623,798.0664 336.79823,797.912 C 338.13134,797.64538 338.88732,797.13869 339.97224,796.325 C 341.19137,795.41065 342.42988,795.26699 343.85159,795.26699 C 344.99714,795.26699 345.56483,795.33011 346.4966,795.79599 C 347.46353,796.27946 348.54136,796.62423 349.31795,797.20667 C 350.23386,797.8936 351.87898,798.44101 353.02097,798.44101 C 354.41033,798.44101 355.25189,798.29538 356.37132,797.73567 C 356.7676,797.53753 356.87068,797.6358 357.25299,797.55934"
     id="path13651" />
  <path
     style="fill:none;fill-opacity:0.75;fill-rule:evenodd;stroke:#000000;stroke-width:1.7;stroke-linecap:butt;stroke-linejoin:miter;stroke-opacity:1;stroke-miterlimit:4;stroke-dasharray:none"
     d="M 303.29474,803.20203 C 304.18244,802.75818 304.5298,801.96751 305.93975,801.61502 C 307.19951,801.30008 308.67338,801.59332 309.64277,802.32036 C 310.41513,802.89963 311.40874,803.20466 312.11144,803.90737 C 313.24458,805.0405 317.89794,804.47118 319.16481,804.26003 C 322.18741,803.75627 322.61125,800.38068 326.92351,800.38068 C 328.31671,800.38068 330.75373,801.85496 332.0372,802.49669 C 333.85937,803.40778 334.9804,804.95629 337.15089,805.31804 C 339.18155,805.65648 341.09226,803.52989 342.79359,802.84936 C 344.54276,802.14969 346.53757,802.42901 348.08361,803.20203 C 349.40925,803.86485 350.54301,804.43173 351.96296,805.1417 C 352.91945,805.61995 354.66504,805.37767 355.48965,804.96537 C 355.9672,804.7266 356.72759,804.56772 357.25299,804.43637"
     id="path13653" />
  <path
     style="fill:none;fill-opacity:0.75;fill-rule:evenodd;stroke:#000000;stroke-width:1.7;stroke-linecap:butt;stroke-linejoin:miter;stroke-opacity:1;stroke-miterlimit:4;stroke-dasharray:none"
     d="M 310.87711,810.07906 C 311.10015,809.96754 311.22977,810.43173 311.40611,810.60806 C 312.18958,811.39153 314.5742,811.3134 315.63813,811.3134 C 317.29681,811.3134 319.01321,810.84009 320.57548,809.90273 C 321.66846,809.24694 321.7959,808.09878 323.04416,807.78672 C 324.3899,807.45028 325.0472,807.51725 326.39451,807.78672 C 327.69545,808.0469 328.84529,808.39941 329.92119,808.66839 C 330.96995,808.93058 332.21215,810.07837 333.27154,810.60806 C 334.1843,811.06444 335.14298,811.29634 335.91656,811.48973 C 337.05383,811.77405 338.29274,811.3134 339.44324,811.3134 C 340.86717,811.3134 341.92611,810.50925 342.96992,809.72639 C 343.7666,809.12888 344.33714,808.72334 345.26227,808.49205 C 346.44483,808.19641 347.00683,808.75186 348.08361,809.02106 C 349.0919,809.27313 350.54678,810.35899 351.61029,810.7844 C 352.78105,811.2527 353.56624,811.48973 354.96064,811.48973 C 355.43453,811.48973 355.8599,811.11948 356.19498,810.7844"
     id="path13655" />
  <path
     style="fill:none;fill-opacity:0.75;fill-rule:evenodd;stroke:#000000;stroke-width:1.7;stroke-linecap:butt;stroke-linejoin:miter;stroke-opacity:1;stroke-miterlimit:4;stroke-dasharray:none"
     d="M 319.51748,818.19043 C 320.30958,818.19043 321.99314,817.65794 323.04416,817.13243 C 323.74645,816.78128 325.17737,815.33468 325.51284,814.66375 C 325.73018,814.22907 327.92679,814.48741 328.33419,814.48741 C 329.62381,814.48741 330.46111,815.23238 331.68454,815.72175 C 332.97072,816.23623 333.63529,817.17928 334.85855,817.4851 C 336.05655,817.7846 336.73578,818.71943 338.38523,818.71943 C 340.56105,818.71943 342.15392,818.12476 343.67526,816.60342 C 344.37604,815.90264 346.06493,815.54542 347.02561,815.54542 C 348.04362,815.54542 349.29499,815.88661 350.02329,816.25076 C 350.83168,816.65495 351.8837,817.40583 352.49197,818.0141 C 353.1433,818.66543 353.77437,818.8637 354.60798,819.0721 C 355.64401,819.33111 356.60939,818.8649 357.25299,818.5431"
     id="path13657" />
  <path
     style="fill:none;fill-opacity:0.75;fill-rule:evenodd;stroke:#000000;stroke-width:1.7;stroke-linecap:butt;stroke-linejoin:miter;stroke-opacity:1;stroke-miterlimit:4;stroke-dasharray:none"
     d="M 326.04184,824.7148 C 326.68639,824.39252 327.55633,822.88142 328.68686,822.59879 C 330.08016,822.25046 331.43573,823.02827 332.56621,823.48046 C 333.58213,823.88683 334.08423,824.6803 335.21122,825.2438 C 336.32355,825.79997 336.84545,826.3018 338.38523,826.3018 C 340.57099,826.3018 341.39715,825.75856 342.96992,824.18579 C 343.61786,823.53785 345.20437,823.36268 346.14394,823.12779 C 347.16192,822.87329 348.61137,823.12779 349.67062,823.12779 C 350.85071,823.12779 351.58143,824.12006 352.1393,824.53846 C 353.00739,825.18953 353.16405,825.57984 354.25531,826.12547 C 355.08623,826.54093 355.54483,826.65447 356.54765,826.65447"
     id="path13659" />
  <path
     style="fill:none;fill-opacity:0.75;fill-rule:evenodd;stroke:#000000;stroke-width:1.7;stroke-linecap:butt;stroke-linejoin:miter;stroke-opacity:1;stroke-miterlimit:4;stroke-dasharray:none"
     d="M 334.68222,832.64983 C 335.05054,832.83399 336.30042,833.35517 338.03257,833.35517 C 339.96171,833.35517 341.66135,832.18577 342.44092,830.88649 C 343.30378,829.44839 344.56609,829.47582 346.14394,829.47582 C 347.32247,829.47582 348.14868,829.93292 349.14162,830.18115 C 350.22073,830.45093 350.98279,831.34162 351.78663,831.9445 C 353.14697,832.96475 353.29018,834.06051 355.13698,834.06051 C 356.21536,834.06051 356.58593,834.19856 357.25299,833.5315"
     id="path13661" />
  <path
     style="fill:none;fill-opacity:0.75;fill-rule:evenodd;stroke:#000000;stroke-width:1.7;stroke-linecap:butt;stroke-linejoin:miter;stroke-opacity:1;stroke-miterlimit:4;stroke-dasharray:none"
     d="M 341.55925,839.87953 C 342.58446,839.87953 343.42451,839.3322 344.20426,838.29252 C 344.97384,837.26642 345.84163,837.53051 347.02561,837.23452 C 347.94113,837.00564 348.95884,837.89416 349.84695,838.11619 C 350.47825,838.27401 351.52438,839.26461 352.1393,839.87953 C 352.9796,840.71983 353.83254,841.18451 354.96064,841.46654 C 356.12469,841.75755 356.63141,841.20645 357.07665,840.7612"
     id="path13663" />
  <path
     style="fill:none;fill-opacity:0.75;fill-rule:evenodd;stroke:#000000;stroke-width:1px;stroke-linecap:butt;stroke-linejoin:miter;stroke-opacity:1"
     d="M 295.3597,696.6962 C 299.76805,694.93286 304.17641,693.16952 308.58476,691.40618"
     id="path14538" />
  <path
     style="fill:none;fill-opacity:0.75;fill-rule:evenodd;stroke:#000000;stroke-width:1px;stroke-linecap:butt;stroke-linejoin:miter;stroke-opacity:1"
     d="M 294.65436,695.28553 C 295.10897,694.59011 295.18337,693.26464 295.18337,691.93518 C 295.18337,690.45453 296.08089,688.96177 296.94671,687.8795 C 297.82953,686.77597 298.97995,685.36403 300.29706,684.70548 C 301.48221,684.1129 302.07333,683.47114 303.47107,683.47114 C 304.64663,683.47114 305.82219,683.47114 306.99775,683.47114 C 307.08088,683.47114 307.11531,683.5887 307.17409,683.64748"
     id="path14540" />
  <path
     style="fill:none;fill-opacity:0.75;fill-rule:evenodd;stroke:#000000;stroke-width:1px;stroke-linecap:butt;stroke-linejoin:miter;stroke-opacity:1"
     d="M 292.71469,695.46186 C 294.07169,695.46186 290.19233,694.22752 288.83534,694.22752 C 287.45422,694.22752 285.12253,694.01201 283.89798,693.52219 C 282.90413,693.12465 280.71983,693.25975 279.8423,693.69852 C 279.03565,694.10184 278.27811,694.39245 277.54995,694.75653"
     id="path14542" />
  <path
     style="fill:none;fill-opacity:0.75;fill-rule:evenodd;stroke:#000000;stroke-width:1px;stroke-linecap:butt;stroke-linejoin:miter;stroke-opacity:1"
     d="M 295.71237,696.1672 C 294.77993,696.63342 297.44785,693.63125 299.23905,692.28785 C 301.49002,690.59963 302.55172,689.76667 305.41075,689.29017 C 306.32322,689.13809 307.74614,689.30093 308.40843,689.4665"
     id="path14544" />
  <path
     style="fill:#f27600;fill-opacity:1;fill-rule:evenodd;stroke:#000000;stroke-width:1px;stroke-linecap:butt;stroke-linejoin:miter;stroke-opacity:1"
     d="M 374.53373,631.45257 L 375.06274,625.28087 L 379.82376,621.40152 L 384.93745,621.04885 L 385.46645,589.48504 L 380.35276,584.72402 L 380.70543,577.67065 L 415.79593,578.19965 L 415.61959,591.60105 L 447.00707,591.60105 L 446.6544,578.55232 L 482.2739,578.19965 L 482.45023,586.31102 L 477.16021,591.60105 L 478.39455,621.04885 L 482.8029,621.04885 L 487.21126,624.9282 L 488.26926,632.33424 L 374.53373,631.45257 z "
     id="path15419"
     sodipodi:nodetypes="ccccccccccccccccccc" />
  <path
     style="fill:#be0004;fill-opacity:1;fill-rule:evenodd;stroke:#000000;stroke-width:1px;stroke-linecap:butt;stroke-linejoin:miter;stroke-opacity:1"
     d="M 419.49894,631.80523 L 419.85161,612.05581 C 419.85161,612.05581 419.50064,603.62982 430.78433,603.41544 C 442.59923,603.19432 442.42238,611.70315 442.42238,611.70315 L 442.42238,631.80524 L 419.49894,631.80523 z "
     id="path15421"
     sodipodi:nodetypes="ccsccc" />
  <path
     style="fill:#000000;fill-opacity:1;fill-rule:evenodd;stroke:#000000;stroke-width:1px;stroke-linecap:butt;stroke-linejoin:miter;stroke-opacity:1"
     d="M 399.39685,596.89107 L 399.74952,609.05813 L 405.03954,609.05813 L 405.03954,597.24374 L 399.39685,596.89107 z "
     id="path15423" />
  <path
     style="fill:#000000;fill-opacity:1;fill-rule:evenodd;stroke:#000000;stroke-width:1px;stroke-linecap:butt;stroke-linejoin:miter;stroke-opacity:1"
     d="M 462.34814,597.94908 L 462.17181,608.35279 L 466.40383,608.35279 L 466.58016,597.94908 L 462.34814,597.94908 z "
     id="path15425" />
  <path
     style="fill:none;fill-opacity:0.75;fill-rule:evenodd;stroke:#000000;stroke-width:1.7;stroke-linecap:butt;stroke-linejoin:miter;stroke-opacity:1;stroke-miterlimit:4;stroke-dasharray:none"
     d="M 359.898,633.39224 C 360.31204,633.59926 361.40031,631.88993 361.66134,631.6289 C 362.23461,631.05564 363.42007,631.10221 364.13002,630.74723 C 364.85499,630.38475 365.68346,630.64228 366.24603,630.92356 C 366.86908,631.23509 367.40356,632.05621 368.00937,632.51057 C 368.54931,632.91553 369.19968,633.38123 369.94905,633.56858 C 370.70564,633.75773 371.55947,633.74491 372.41772,633.74491 C 373.5048,633.74491 373.83043,633.39021 374.3574,632.86324 C 374.66928,632.55136 374.93437,632.06197 375.06274,631.80524"
     id="path15429" />
  <path
     style="fill:none;fill-opacity:0.75;fill-rule:evenodd;stroke:#000000;stroke-width:1.7;stroke-linecap:butt;stroke-linejoin:miter;stroke-opacity:1;stroke-miterlimit:4;stroke-dasharray:none"
     d="M 488.44559,630.39456 C 489.17145,629.66871 490.27108,631.37994 491.26694,631.6289 C 492.2868,631.88387 493.39581,631.49344 494.26462,631.27623 C 495.27866,631.02272 495.64466,630.33628 496.38063,630.04189 C 497.14472,629.73626 498.16181,628.39742 499.02564,627.74955 C 499.61843,627.30496 501.2676,627.57322 502.02332,627.57322 C 502.97124,627.57322 503.58116,627.99947 504.492,628.45489 C 505.26667,628.84222 506.45529,629.83919 506.96068,630.21823 C 507.92659,630.94266 508.53402,631.6587 509.78203,632.1579 C 510.53191,632.45786 511.56219,632.33424 512.42704,632.33424 C 513.29144,632.33424 514.14167,631.81741 514.89572,631.6289 C 515.73475,631.41914 516.74631,630.81404 517.54073,630.21823 C 518.25441,629.68297 518.70139,629.17864 519.48041,628.98389 C 520.64476,628.6928 521.28524,627.69509 522.47809,627.39688 C 523.51061,627.13875 524.58004,627.22055 525.6521,627.22055 C 526.81349,627.22055 527.47404,627.74955 528.47345,627.74955 C 529.05392,627.74955 531.26063,629.10446 531.64746,629.33656 C 532.60312,629.90995 533.46711,630.5709 534.64514,630.5709 C 535.4893,630.5709 536.36817,631.09184 537.29015,631.27623 C 537.88637,631.39548 538.86596,630.92637 539.5825,630.74723 C 540.58706,630.49609 541.48052,630.4258 542.22751,629.86556 C 542.46287,629.68904 542.45325,629.63982 542.58018,629.51289"
     id="path15431" />
  <path
     style="fill:none;fill-opacity:0.75;fill-rule:evenodd;stroke:#000000;stroke-width:1.7;stroke-linecap:butt;stroke-linejoin:miter;stroke-opacity:1;stroke-miterlimit:4;stroke-dasharray:none"
     d="M 360.427,640.97461 C 361.33377,640.29453 362.88672,639.42646 364.30635,638.8586 C 365.72244,638.29217 367.0494,637.95736 368.53837,638.3296 C 369.7945,638.64363 370.93879,639.52981 372.06506,640.09294 C 373.11296,640.61689 374.35079,640.88479 375.4154,641.15095 C 376.69101,641.46985 378.34306,641.02388 379.47109,640.79828 C 380.86875,640.51874 381.91828,639.66285 383.17411,639.03494 C 384.78626,638.22886 386.22739,637.24379 387.93513,636.38992 C 389.13153,635.79172 390.65771,635.86092 391.99081,635.86092 C 393.2409,635.86092 394.50073,635.79863 395.69383,636.03726 C 397.49583,636.39765 399.17549,636.98458 400.80752,637.8006 C 402.45861,638.62614 404.70565,639.74027 406.62655,639.74027 C 408.27885,639.74027 409.99883,640.13154 411.56391,639.74027 C 411.79902,639.68149 412.03413,639.62272 412.26924,639.56394 C 413.49437,639.25766 414.68566,638.29858 415.97226,637.97693 C 417.30065,637.64483 418.54136,636.54115 419.85161,636.21359 C 421.40121,635.82619 422.64084,635.50825 424.25996,635.50825 C 425.97609,635.50825 427.37884,635.86092 429.02099,635.86092 C 430.56396,635.86092 433.29974,637.11863 434.66368,637.8006 C 436.17796,638.55774 437.98149,639.33539 439.60104,639.74027 C 440.76374,640.03095 442.44728,639.74027 443.65672,639.74027 C 445.00825,639.74027 446.64542,638.75639 447.71241,638.3296 C 448.77482,637.90463 449.53605,637.41778 450.53375,636.91893 C 452.10522,636.13319 453.43509,635.64187 455.29477,635.33192 C 456.74575,635.09009 458.22353,635.15558 459.70313,635.15558 C 461.19043,635.15558 462.74555,634.96188 464.11148,635.50825 C 465.30563,635.98591 466.77261,636.13348 467.99083,636.74259 C 469.65123,637.57279 471.14623,638.56161 472.92819,638.8586 C 475.25505,639.24641 477.51292,640.26927 479.98156,640.26927 C 481.62734,640.26927 483.27313,640.26927 484.91891,640.26927 C 485.97473,640.26927 486.57689,640.07875 487.38759,639.91661 C 488.41713,639.7107 489.36669,639.81858 490.38527,639.56394 C 491.56781,639.2683 492.45812,638.90176 493.20662,638.15326 C 493.82058,637.5393 494.70369,636.47986 495.14629,636.03726 C 495.92218,635.26137 497.64488,634.97925 498.84931,634.97925 C 499.98089,634.97925 501.1751,634.89945 502.19966,635.15558 C 503.46065,635.47083 504.27993,635.96657 505.55001,636.38992 C 507.80975,637.14317 510.30697,637.76371 512.60337,638.68227 C 513.53474,639.05481 514.16446,639.3876 515.42472,639.3876 C 517.40917,639.3876 519.3145,639.28535 521.06741,639.03494 C 522.18804,638.87485 522.29756,638.15536 523.35976,637.62426 C 524.59616,637.44763 525.88397,636.72871 527.23911,636.38992 C 528.55152,636.06182 529.22488,636.23664 530.23679,636.74259 C 531.2307,637.23955 532.26019,637.48979 533.23447,637.97693 C 534.12738,638.42339 534.69416,638.98401 535.70315,639.3876 C 536.73513,639.8004 538.21678,639.91661 539.40616,639.91661 C 540.30633,639.91661 541.53265,639.73818 542.40384,639.56394 C 543.41021,639.36266 544.36257,639.01588 545.04886,638.3296 C 545.88607,637.49238 546.83618,637.24761 547.69387,636.38992 C 548.34082,635.74297 548.98593,635.21489 549.80988,634.80292"
     id="path15433" />
  <path
     style="fill:none;fill-opacity:0.75;fill-rule:evenodd;stroke:#000000;stroke-width:1.7;stroke-linecap:butt;stroke-linejoin:miter;stroke-opacity:1;stroke-miterlimit:4;stroke-dasharray:none"
     d="M 360.25067,648.02798 C 360.29326,647.98539 362.71744,646.26606 364.13002,645.20663 C 365.08326,644.4917 368.13488,645.09305 369.06738,645.5593 C 371.26841,646.65981 373.24999,648.73331 375.94441,648.73331 C 377.82952,648.73331 379.58928,648.57152 381.0581,648.20431 C 382.38438,647.87274 382.76685,647.2009 383.52678,646.44097 C 386.52733,643.44041 391.35407,643.26696 395.34116,643.26696 C 398.41264,643.26696 401.26455,644.4653 403.8052,645.73563 C 408.35797,648.01202 414.14542,647.61067 418.08827,644.32496 C 420.35364,642.43715 422.42126,641.85628 425.14163,641.85628 C 427.73402,641.85628 430.17094,642.62869 432.724,643.26696 C 435.41628,643.94002 437.76735,645.07269 440.30637,646.0883 C 440.70368,646.24722 441.12926,646.32341 441.54071,646.44097 C 443.18829,646.91171 444.93367,646.79364 446.6544,646.79364 C 447.6489,646.79364 448.75523,645.99161 449.47575,645.5593 C 451.54361,644.31858 453.46429,642.93667 455.64744,642.20895 C 457.13475,641.71318 459.87341,642.20895 461.46647,642.20895 C 463.74932,642.20895 465.82918,642.73035 467.99083,643.09062 C 470.90885,643.57696 473.37618,645.15516 476.27854,645.73563 C 479.26538,646.333 481.97489,647.14631 485.09525,647.14631 C 487.0336,647.14631 489.11948,647.24234 490.91427,646.79364 C 492.47155,646.40432 494.52832,645.2956 495.67529,644.14863 C 497.64699,642.17693 499.06206,641.50361 502.02332,641.50361 C 504.36731,641.50361 505.81199,642.19384 508.01869,642.56162 C 509.78431,642.85589 512.38444,644.39183 514.01405,645.20663 C 516.83382,646.61652 520.25447,646.26464 523.35976,646.26464 C 524.85785,646.26464 527.12497,645.32076 527.94444,644.50129 C 529.23249,644.50129 530.33056,644.32496 531.64746,644.32496 C 533.00789,644.32496 534.1643,644.38108 535.35048,644.67763 C 536.49395,644.9635 537.75411,645.41079 539.0535,645.73563 C 540.77288,646.16548 543.05744,645.47976 544.69619,645.20663 C 546.13311,644.96714 547.91119,644.66738 549.28088,644.32496 C 550.05767,644.13076 551.1584,643.3862 551.74955,643.09062 C 552.64014,642.64533 553.17081,642.20895 554.39457,642.20895 C 555.26468,642.20895 555.95941,642.09428 556.68691,642.38528"
     id="path15435" />
  <path
     style="fill:none;fill-opacity:0.75;fill-rule:evenodd;stroke:#000000;stroke-width:1.7;stroke-linecap:butt;stroke-linejoin:miter;stroke-opacity:1;stroke-miterlimit:4;stroke-dasharray:none"
     d="M 558.62659,645.73563 C 556.98206,646.06454 552.56006,649.84082 549.28088,650.49666 C 548.74949,650.60293 548.22287,650.73177 547.69387,650.84932 C 544.9795,651.45252 541.42844,650.25281 538.87716,649.61498 C 536.98887,649.14291 535.45606,648.45112 533.76347,648.02798 C 532.43239,647.69521 530.55212,648.02798 529.17878,648.02798 C 527.56238,648.02798 526.65381,649.45272 525.29943,649.79132 C 523.93231,650.1331 522.44644,650.22085 521.06741,650.49666 C 519.05648,650.89884 515.38919,650.83156 513.66138,649.96765 C 511.83107,649.0525 509.78749,647.67531 507.66602,647.67531 C 505.54618,647.67531 503.45472,646.68993 501.67066,648.02798 C 500.79962,648.68126 499.04179,649.52278 497.96764,649.79132 C 497.73253,649.8501 497.49741,649.90887 497.2623,649.96765 C 494.04938,650.77088 490.99516,651.55466 487.56392,651.55466 C 484.45928,651.55466 482.03299,651.42303 479.27622,650.32032 C 477.50342,649.6112 475.69779,649.40064 473.80986,649.08598 C 471.40343,648.68491 469.19053,647.85164 466.75649,647.85164 C 465.10649,647.85164 463.87397,648.07548 462.34814,648.38065 C 461.01343,648.64759 459.28025,649.56192 458.11612,650.14399 C 457.06987,650.66711 455.39905,650.67299 454.23677,650.67299 C 452.90156,650.67299 450.79758,650.6952 449.47575,651.02566 C 447.55747,651.50523 444.76268,651.02566 442.77505,651.02566 C 440.35501,651.02566 437.88083,649.83446 436.25069,648.20431 C 435.02948,646.98311 431.56737,646.95055 430.07899,647.32264 C 427.72705,647.91063 424.19868,648.90965 421.79129,648.90965 C 420.22236,648.90965 417.87758,649.70888 416.32493,649.96765 C 414.69479,650.23934 413.42243,651.02566 411.74024,651.02566 C 410.10954,651.02566 408.36044,651.20199 406.62655,651.20199 C 406.45022,651.20199 406.27388,651.20199 406.09755,651.20199 C 404.6836,651.20199 403.7423,650.90604 402.57086,650.32032 C 401.01216,649.54097 400.33355,649.26232 398.51518,649.26232 C 396.88859,649.26232 395.29607,648.73331 393.57782,648.73331 C 392.14292,648.73331 390.73281,648.90965 389.3458,648.90965 C 388.12785,648.90965 386.6254,650.00535 385.64279,650.49666 C 383.57176,651.53217 381.88079,651.73099 379.47109,651.73099 C 377.89325,651.73099 375.98593,651.91771 374.53373,651.55466 C 373.09917,651.19602 371.26293,651.20199 369.77271,651.20199 C 368.36204,651.20199 366.95137,651.20199 365.54069,651.20199 C 364.20096,651.20199 363.93128,651.4833 362.89568,652.26 C 361.94913,652.96991 361.87009,653.30179 360.77967,653.847 C 359.99879,654.23744 360.27358,653.75536 360.07433,654.55234"
     id="path15439" />
  <path
     style="fill:none;fill-opacity:0.75;fill-rule:evenodd;stroke:#000000;stroke-width:1.7;stroke-linecap:butt;stroke-linejoin:miter;stroke-opacity:1;stroke-miterlimit:4;stroke-dasharray:none"
     d="M 430.25533,591.60105 L 430.43166,560.91891"
     id="path17187" />
  <path
     style="fill:none;fill-opacity:0.75;fill-rule:evenodd;stroke:#000000;stroke-width:1px;stroke-linecap:butt;stroke-linejoin:miter;stroke-opacity:1"
     d="M 417.91193,570.79362 C 417.91193,568.8116 419.99961,565.34143 421.79129,564.44559 C 424.26323,563.20962 427.26555,560.9812 429.90266,562.15325 C 429.36139,562.42389 429.56226,560.83687 429.02099,560.56624 C 426.28142,559.19645 423.22689,559.3319 420.20428,559.3319 C 418.51517,559.3319 415.79864,561.97148 415.09059,563.38759 C 414.93187,563.70502 414.85422,563.97849 414.73792,564.26926"
     id="path18064" />
  <path
     style="fill:none;fill-opacity:0.75;fill-rule:evenodd;stroke:#000000;stroke-width:1px;stroke-linecap:butt;stroke-linejoin:miter;stroke-opacity:1"
     d="M 410.85857,555.80522 C 411.10502,555.47661 411.45017,554.75744 411.91657,554.57088 C 416.92842,552.56614 421.15311,553.45829 425.84697,555.80522 C 428.71694,557.2402 430.1601,561.8147 430.25533,561.62424 C 429.08867,562.0909 430.11193,559.0451 429.54999,557.92123 C 426.86081,552.54286 423.10859,548.52883 417.55927,545.75417"
     id="path18066" />
  <path
     style="fill:none;fill-opacity:0.75;fill-rule:evenodd;stroke:#000000;stroke-width:1px;stroke-linecap:butt;stroke-linejoin:miter;stroke-opacity:1"
     d="M 429.02099,544.69617 C 429.02099,545.64969 429.37365,546.45414 429.37365,547.34118 C 429.37365,551.30373 428.95122,558.83971 430.78433,562.50591 C 430.78433,559.83957 430.59158,557.82696 431.137,555.09988 C 431.58429,552.86342 435.07049,550.81372 436.60335,549.28085 C 437.23333,548.65088 438.10529,548.37637 438.71936,548.22285"
     id="path18068" />
  <path
     style="fill:none;fill-opacity:0.75;fill-rule:evenodd;stroke:#000000;stroke-width:1px;stroke-linecap:butt;stroke-linejoin:miter;stroke-opacity:1"
     d="M 442.42238,553.51287 C 442.285,553.40984 442.00906,553.08121 441.71705,552.98387 C 439.24181,552.15879 437.63454,553.36336 435.72168,555.27621 C 433.85711,557.14079 431.07415,561.86343 430.60799,562.32958 C 430.66989,562.35021 436.18918,558.14267 436.77969,557.92123 C 439.46575,556.91395 442.43533,558.28253 444.53839,559.68457 C 445.99265,560.65408 447.57803,561.55281 448.24141,563.21125"
     id="path18070" />
  <path
     style="fill:none;fill-opacity:0.75;fill-rule:evenodd;stroke:#000000;stroke-width:1px;stroke-linecap:butt;stroke-linejoin:miter;stroke-opacity:1"
     d="M 430.43166,562.68225 C 430.51452,562.73749 436.41277,562.32246 438.54303,563.38759 C 439.06081,563.64648 439.60104,563.85781 440.13004,564.09292 C 441.99532,564.92194 443.65672,568.22482 443.65672,570.08828 C 443.65672,570.17141 443.77428,570.20584 443.83305,570.26462"
     id="path18072" />
  <path
     style="fill:none;fill-opacity:0.75;fill-rule:evenodd;stroke:#000000;stroke-width:1px;stroke-linecap:butt;stroke-linejoin:miter;stroke-opacity:1"
     d="M 437.30869,571.49896 C 437.97717,574.17286 437.08295,569.18532 436.95602,568.67761 C 436.25264,565.86407 430.43166,563.51793 430.43166,561.97691 C 430.49846,562.24411 426.76235,567.65852 426.02331,569.38295 C 425.28202,571.11261 424.37922,572.98202 424.61263,574.84931"
     id="path18074" />
  <path
     style="fill:none;fill-opacity:0.75;fill-rule:evenodd;stroke:#000000;stroke-width:1px;stroke-linecap:butt;stroke-linejoin:miter;stroke-opacity:1"
     d="M 430.25533,561.97691 C 429.7647,563.12169 427.89483,562.77393 426.72864,563.21125 C 424.03926,564.21977 422.7397,567.5718 422.32029,570.08828 C 422.26151,570.44095 422.20273,570.79362 422.14395,571.14629"
     id="path18076" />
  <path
     style="fill:none;fill-opacity:0.75;fill-rule:evenodd;stroke:#000000;stroke-width:1px;stroke-linecap:butt;stroke-linejoin:miter;stroke-opacity:1"
     d="M 429.72632,562.85858 C 429.5655,563.82353 428.83105,561.08164 428.13932,560.3899 C 424.52925,556.77984 418.44242,556.51055 413.67992,556.51055 C 413.11703,556.51055 412.72009,556.72597 412.44558,556.86322"
     id="path18078" />
  <path
     style="fill:none;fill-opacity:0.75;fill-rule:evenodd;stroke:#000000;stroke-width:1px;stroke-linecap:butt;stroke-linejoin:miter;stroke-opacity:1"
     d="M 417.55927,563.38759 C 419.24841,559.16472 425.47289,561.62424 429.02099,561.62424 C 428.13152,561.62424 428.84276,559.85143 428.66832,558.97923 C 428.37443,557.50978 428.08054,556.04033 427.78665,554.57088 C 426.97876,550.53142 424.70363,546.99985 423.73096,543.10916"
     id="path18080" />
  <path
     style="fill:none;fill-opacity:0.75;fill-rule:evenodd;stroke:#000000;stroke-width:1px;stroke-linecap:butt;stroke-linejoin:miter;stroke-opacity:1"
     d="M 430.07899,561.09524 C 429.37461,557.57333 431.48966,554.42262 431.48966,551.04419 C 431.48966,548.79251 433.37119,546.01229 435.01635,544.69617"
     id="path18082" />
  <path
     style="fill:none;fill-opacity:0.75;fill-rule:evenodd;stroke:#000000;stroke-width:1px;stroke-linecap:butt;stroke-linejoin:miter;stroke-opacity:1"
     d="M 431.48966,562.68225 C 431.48966,560.92282 438.60652,561.96046 439.9537,562.85858 C 441.84044,564.11641 442.69041,565.00985 443.83305,566.91427"
     id="path18084" />
  <path
     style="fill:none;fill-opacity:0.75;fill-rule:evenodd;stroke:#000000;stroke-width:1px;stroke-linecap:butt;stroke-linejoin:miter;stroke-opacity:1"
     d="M 432.90034,563.21125 C 433.60567,563.68148 433.71159,561.69466 434.31101,561.09524 C 435.79353,559.61272 442.26477,561.49441 443.65672,562.32958"
     id="path18086" />
  <path
     style="fill:none;fill-opacity:0.75;fill-rule:evenodd;stroke:#000000;stroke-width:1px;stroke-linecap:butt;stroke-linejoin:miter;stroke-opacity:1"
     d="M 431.84233,561.27158 C 432.7036,561.78834 432.19012,559.16045 432.90034,558.45023 C 436.31272,555.03785 440.87231,555.27621 444.71473,555.27621"
     id="path18088" />
  <path
     style="fill:none;fill-opacity:0.75;fill-rule:evenodd;stroke:#000000;stroke-width:1px;stroke-linecap:butt;stroke-linejoin:miter;stroke-opacity:1"
     d="M 432.37134,562.32958 C 432.40561,562.29531 436.28192,564.61968 436.60335,564.79826 C 440.20876,566.80126 440.26406,570.17999 441.89338,573.43863 C 441.96773,573.58733 442.12849,573.67374 442.24605,573.7913"
     id="path18090" />
  <path
     style="fill:none;fill-opacity:0.75;fill-rule:evenodd;stroke:#000000;stroke-width:1px;stroke-linecap:butt;stroke-linejoin:miter;stroke-opacity:1"
     d="M 431.84233,561.09524 C 432.601,562.61258 432.318,557.67522 433.07667,556.15789 C 434.48296,553.34531 438.29606,548.32868 441.54071,547.51751"
     id="path18092" />
  <path
     style="fill:#f27600;fill-opacity:1;fill-rule:evenodd;stroke:#000000;stroke-width:3;stroke-linecap:butt;stroke-linejoin:miter;stroke-opacity:1;stroke-miterlimit:4;stroke-dasharray:none"
     d="M 191.85155,370.30169 C 191.93972,367.03951 190.29907,364.6634 197.84692,361.83765 C 205.26143,359.06182 245.72808,342.24061 366.06969,343.4989 C 479.7216,344.67987 528.73801,363.87624 532.52913,365.36434 C 538.88897,367.86072 539.58249,371.00703 540.28783,374.18104 C 540.99317,377.35505 535.35048,378.06039 535.35048,378.06039 C 535.35048,378.06039 464.99607,357.49274 363.95368,356.9003 C 260.79834,356.29754 197.49425,374.88638 197.49425,374.88638 C 197.49425,374.88638 191.76338,373.56387 191.85155,370.30169 z "
     id="path20722"
     sodipodi:nodetypes="csssscscs" />
  <path
     style="fill:#f27600;fill-opacity:1;fill-rule:evenodd;stroke:#000000;stroke-width:3;stroke-linecap:butt;stroke-linejoin:miter;stroke-opacity:1;stroke-miterlimit:4;stroke-dasharray:none"
     d="M 167.08068,335.66089 C 167.08068,335.66089 204.73617,355.48613 229.92296,351.62083 C 255.10975,347.75553 267.82783,320.19969 267.82783,320.19969 C 267.82783,320.19969 291.22265,343.55193 315.20892,342.64336 C 348.12631,341.39649 363.5875,313.21721 363.5875,313.21721 C 363.5875,313.21721 381.29307,341.64586 416.95357,343.14211 C 442.73719,344.22394 466.32965,323.19218 466.32965,323.19218 C 466.32965,323.19218 475.07444,351.92975 499.24704,356.60832 C 530.16944,362.5933 564.08432,335.16214 564.08432,335.16214 L 561.09183,321.69594 C 561.09183,321.69594 530.41881,341.64587 508.22451,336.65838 C 486.03021,331.6709 472.31463,301.746 472.31463,301.746 C 472.31463,301.746 439.39725,326.18467 412.46484,323.19218 C 385.53243,320.19969 364.585,289.77604 364.585,289.77604 C 364.585,289.77604 340.89446,320.32437 315.20892,322.69343 C 289.52338,325.06248 261.84285,299.25226 261.84285,299.25226 C 261.84285,299.25226 249.00009,329.8006 225.43423,335.16214 C 201.86838,340.52369 167.57943,320.69844 167.57943,320.69844 L 167.08068,335.66089 z "
     id="path21600"
     sodipodi:nodetypes="cscscscsccscscscscc" />
  <path
     style="fill:#f27600;fill-opacity:1;fill-rule:evenodd;stroke:#000000;stroke-width:3;stroke-linecap:butt;stroke-linejoin:miter;stroke-opacity:1;stroke-miterlimit:4;stroke-dasharray:none"
     d="M 165.58443,319.20219 C 165.58443,319.20219 168.95098,331.54621 165.08568,338.15463 C 161.22038,344.76305 158.97602,347.25678 150.12324,345.63585 C 141.27046,344.01492 131.91618,339.00711 129.67456,331.6709 C 128.303,327.18217 128.67706,323.69093 128.67706,323.69093 C 128.67706,323.69093 117.56799,317.62652 114.21336,311.22222 C 112.8418,308.60379 109.59994,303.36693 113.21586,299.25226 C 116.83179,295.13759 120.5724,294.51415 128.67706,294.76353 C 136.78172,295.0129 145.6345,300.24976 145.6345,300.24976 C 145.6345,300.24976 144.13826,311.47159 149.12574,316.2097 C 154.11322,320.94781 165.58443,319.20219 165.58443,319.20219 z "
     id="path22475"
     sodipodi:nodetypes="cssscssscsc" />
  <path
     style="fill:#f27600;fill-opacity:1;fill-rule:evenodd;stroke:#000000;stroke-width:3;stroke-linecap:butt;stroke-linejoin:miter;stroke-opacity:1;stroke-miterlimit:4;stroke-dasharray:none"
     d="M 145.13575,299.25226 C 145.13575,299.25226 123.06614,290.02542 116.7071,282.79357 C 110.34806,275.56172 117.20585,275.06297 119.69959,270.32486 C 122.19333,265.58675 121.5699,264.96331 126.68207,263.84113 C 131.79424,262.71895 134.66204,267.58175 140.14827,265.83613 C 145.6345,264.09051 143.63951,258.60428 148.62699,256.85866 C 153.61447,255.11304 155.2354,254.98835 160.0982,258.85365 C 164.961,262.71895 167.20536,263.46707 168.07817,272.31985 C 168.95098,281.17263 163.58944,294.26478 163.58944,294.26478 C 163.58944,294.26478 155.2354,292.02041 150.62198,293.26728 C 146.00856,294.51415 145.13575,299.25226 145.13575,299.25226 z "
     id="path23350"
     sodipodi:nodetypes="cssssssscsc" />
  <path
     style="fill:#f27600;fill-opacity:1;fill-rule:evenodd;stroke:#000000;stroke-width:3;stroke-linecap:butt;stroke-linejoin:miter;stroke-opacity:1;stroke-miterlimit:4;stroke-dasharray:none"
     d="M 164.58694,292.76853 C 166.08318,290.27479 170.19786,282.29482 175.06065,277.80609 C 179.92345,273.31736 184.78624,273.44204 190.52185,275.8111 C 196.25745,278.18015 196.38214,280.79857 198.00307,287.2823 C 199.624,293.76603 196.50683,294.76352 197.00558,301.746 C 197.50433,308.72848 200.99556,309.72598 199.99806,315.21221 C 199.00056,320.69844 197.00558,321.44656 193.01559,323.69093 C 189.0256,325.9353 190.64654,325.56124 184.03812,324.18968 C 177.4297,322.81812 166.58193,318.2047 166.58193,318.2047 C 166.58193,318.2047 173.56441,310.59879 173.06566,304.23975 C 172.56691,297.88071 164.58694,292.76853 164.58694,292.76853 z "
     id="path23352"
     sodipodi:nodetypes="cssssssscsc" />
  <path
     sodipodi:type="arc"
     style="fill:#be0004;fill-opacity:1;fill-rule:evenodd;stroke:#000000;stroke-width:3;stroke-linecap:round;stroke-linejoin:bevel;stroke-miterlimit:4;stroke-dasharray:none;stroke-opacity:1"
     id="path24227"
     sodipodi:cx="157.60446"
     sodipodi:cy="308.22974"
     sodipodi:rx="15.461197"
     sodipodi:ry="12.468707"
     d="M 173.06566 308.22974 A 15.461197 12.468707 0 1 1  142.14326,308.22974 A 15.461197 12.468707 0 1 1  173.06566 308.22974 z"
     transform="matrix(1.175717,0,0,1.28656,-26.19766,-90.32125)" />
  <path
     style="fill:#f27600;fill-opacity:1;fill-rule:evenodd;stroke:#000000;stroke-width:3;stroke-linecap:butt;stroke-linejoin:miter;stroke-opacity:1;stroke-miterlimit:4;stroke-dasharray:none"
     d="M 260.34661,299.25226 C 260.34661,299.25226 251.24446,310.22472 243.38917,314.21471 C 235.53389,318.2047 235.28451,317.70595 228.92547,315.21221 C 222.56643,312.71847 220.44674,310.10004 217.953,304.23975 C 215.45926,298.37946 220.57143,297.50665 218.9505,291.77104 C 217.32957,286.03543 212.09272,286.90824 211.46928,281.29732 C 210.84585,275.6864 212.09271,272.8186 216.45676,269.32736 C 220.82081,265.83612 221.69362,264.96332 228.92547,267.33237 C 236.15732,269.70143 245.38416,278.80358 245.38416,278.80358 C 245.38416,278.80358 242.64105,286.65886 246.38166,291.77103 C 250.12227,296.8832 260.34661,299.25226 260.34661,299.25226 z "
     id="path25102"
     sodipodi:nodetypes="cssssssscsc" />
  <path
     style="fill:#f27600;fill-opacity:1;fill-rule:evenodd;stroke:#000000;stroke-width:3;stroke-linecap:butt;stroke-linejoin:miter;stroke-opacity:1;stroke-miterlimit:4;stroke-dasharray:none"
     d="M 245.88291,276.30984 C 243.88791,273.31735 232.29202,270.9483 227.42922,265.33738 C 222.56642,259.72646 224.6861,255.11304 227.42922,249.37744 C 230.17233,243.64183 232.29201,243.76652 238.40168,242.39496 C 244.51135,241.0234 245.75822,245.01338 251.86789,243.8912 C 257.97756,242.76902 256.98006,237.03341 262.84035,237.90622 C 268.70064,238.77903 272.31657,241.64684 275.30906,247.38244 C 278.30155,253.11804 277.8028,253.99085 274.81031,260.84864 C 271.81782,267.70643 263.3391,274.8136 263.3391,274.8136 C 263.3391,274.8136 258.72568,271.94579 254.36163,272.31985 C 249.99758,272.69391 245.88291,276.30984 245.88291,276.30984 z "
     id="path25104"
     sodipodi:nodetypes="cssssssscsc" />
  <path
     style="fill:#f27600;fill-opacity:1;fill-rule:evenodd;stroke:#000000;stroke-width:3;stroke-linecap:butt;stroke-linejoin:miter;stroke-opacity:1;stroke-miterlimit:4;stroke-dasharray:none"
     d="M 266.33159,273.31735 C 266.33159,273.31735 275.93249,258.85365 282.79028,252.86867 C 289.64807,246.88369 291.76775,248.37993 294.76024,249.37743 C 297.51918,250.29708 300.12178,253.36742 302.24146,258.85365 C 304.36114,264.33988 303.36364,266.0855 302.24146,271.32236 C 301.11928,276.55922 297.00461,275.06297 297.75273,279.80108 C 298.50085,284.53919 304.11177,284.91324 305.23395,290.27479 C 306.35613,295.63633 306.10676,297.25727 302.24146,301.24726 C 298.37616,305.23725 299.24898,306.98286 289.77276,306.23474 C 280.29654,305.48662 264.33659,298.25477 264.33659,298.25477 L 272.31657,285.28731 L 266.33159,273.31735 z "
     id="path25106"
     sodipodi:nodetypes="cssssssssccc" />
  <path
     sodipodi:type="arc"
     style="fill:#be0004;fill-opacity:1;fill-rule:evenodd;stroke:#000000;stroke-width:3;stroke-linecap:round;stroke-linejoin:bevel;stroke-miterlimit:4;stroke-dasharray:none;stroke-opacity:1"
     id="path25981"
     sodipodi:cx="157.60446"
     sodipodi:cy="308.22974"
     sodipodi:rx="15.461197"
     sodipodi:ry="12.468707"
     d="M 173.06566 308.22974 A 15.461197 12.468707 0 1 1  142.14326,308.22974 A 15.461197 12.468707 0 1 1  173.06566 308.22974 z"
     transform="matrix(1.043938,0,0,1.214793,92.57543,-88.39975)" />
  <path
     style="fill:#f27600;fill-opacity:1;fill-rule:evenodd;stroke:#000000;stroke-width:3;stroke-linecap:butt;stroke-linejoin:miter;stroke-opacity:1;stroke-miterlimit:4;stroke-dasharray:none"
     d="M 365.08375,289.77604 C 361.59251,291.27229 355.23348,299.12757 345.63257,301.746 C 336.03166,304.36443 332.39536,302.78985 326.68013,300.24976 C 324.43576,299.25226 322.69014,292.02042 322.69014,291.77104 C 322.69009,280.50495 320.07171,266.45956 322.69014,255.36241 C 325.30857,244.26526 327.80232,247.88119 333.16386,247.38244 C 338.5254,246.88369 338.15134,248.754 344.13632,253.36742 C 350.1213,257.98084 357.10378,265.83613 357.10378,265.83613 C 357.10378,265.83613 349.62256,271.82111 351.61755,277.80609 C 353.61254,283.79107 365.08375,289.77604 365.08375,289.77604 z "
     id="path25984"
     sodipodi:nodetypes="csssssscsc" />
  <path
     style="fill:#f27600;fill-opacity:1;fill-rule:evenodd;stroke:#000000;stroke-width:3;stroke-linecap:butt;stroke-linejoin:miter;stroke-opacity:1;stroke-miterlimit:4;stroke-dasharray:none"
     d="M 356.60503,263.84113 C 352.11629,259.85115 343.3882,251.87118 340.64508,245.38745 C 337.90197,238.90372 342.51539,238.65434 345.63257,235.41248 C 348.74975,232.17062 344.01164,233.2928 353.11379,232.41999 C 362.21594,231.54718 373.06372,230.42499 382.04119,231.92124 C 391.01866,233.41749 386.90399,233.66686 389.02367,238.40497 C 391.14335,243.14308 393.63709,243.76652 390.51991,250.87368 C 387.40273,257.98084 376.55496,266.83362 376.55496,266.83362 C 376.55496,266.83362 371.56747,260.72396 367.07874,260.84864 C 361.9081,260.99227 356.60503,263.84113 356.60503,263.84113 z "
     id="path25986"
     sodipodi:nodetypes="csssssscsc" />
  <path
     style="fill:#f27600;fill-opacity:1;fill-rule:evenodd;stroke:#000000;stroke-width:3;stroke-linecap:butt;stroke-linejoin:miter;stroke-opacity:1;stroke-miterlimit:4;stroke-dasharray:none"
     d="M 378.54995,265.33738 L 394.5099,249.87618 C 394.5099,249.87618 399.99613,245.13807 404.98361,247.38244 C 409.97109,249.62681 414.45983,258.85365 414.45983,258.85365 C 414.45983,258.85365 413.08827,280.5492 410.46984,291.77104 C 407.85141,302.99288 408.47485,300.37445 403.98612,303.741 C 399.49739,307.10755 392.51491,305.23724 392.51491,305.23724 L 369.07374,290.27479 C 369.07374,290.27479 377.67715,284.04044 380.0462,277.80609 C 382.41525,271.57174 378.54995,265.33738 378.54995,265.33738 z "
     id="path25988"
     sodipodi:nodetypes="ccscssccsc" />
  <path
     sodipodi:type="arc"
     style="fill:#be0004;fill-opacity:1;fill-rule:evenodd;stroke:#000000;stroke-width:3;stroke-linecap:round;stroke-linejoin:bevel;stroke-miterlimit:4;stroke-dasharray:none;stroke-opacity:1"
     id="path26863"
     sodipodi:cx="157.60446"
     sodipodi:cy="308.22974"
     sodipodi:rx="15.461197"
     sodipodi:ry="12.468707"
     d="M 173.06566 308.22974 A 15.461197 12.468707 0 1 1  142.14326,308.22974 A 15.461197 12.468707 0 1 1  173.06566 308.22974 z"
     transform="matrix(1.117168,0,0,1.268591,192.5042,-114.209)" />
  <path
     style="fill:#f27600;fill-opacity:1;fill-rule:evenodd;stroke:#000000;stroke-width:3;stroke-linecap:butt;stroke-linejoin:miter;stroke-opacity:1;stroke-miterlimit:4;stroke-dasharray:none"
     d="M 470.81839,301.24726 C 450.86846,308.22973 459.97062,308.10505 450.86846,308.22973 C 441.7663,308.35442 439.02318,312.21971 434.40976,301.746 C 429.79634,291.27229 430.1704,278.42952 432.41477,266.33487 C 434.65914,254.24023 436.40475,254.98835 443.38723,253.36742 C 450.36971,251.74649 453.61157,254.86367 460.34467,259.85115 C 467.07777,264.83863 470.31964,273.31735 470.31964,273.31735 C 470.31964,273.31735 460.71874,277.30733 460.84342,284.28981 C 460.96811,291.27229 470.81839,301.24726 470.81839,301.24726 z "
     id="path26865"
     sodipodi:nodetypes="cssssscsc" />
  <path
     style="fill:#f27600;fill-opacity:1;fill-rule:evenodd;stroke:#000000;stroke-width:3;stroke-linecap:butt;stroke-linejoin:miter;stroke-opacity:1;stroke-miterlimit:4;stroke-dasharray:none"
     d="M 469.32214,271.32236 C 467.32715,267.83112 461.71623,262.46957 461.34217,255.36241 C 460.96811,248.25525 458.34968,245.13808 467.8259,242.89371 C 477.30212,240.64934 489.14739,242.76902 499.24704,246.38494 C 509.34669,250.00086 507.22701,251.74649 508.22451,257.35741 C 509.22201,262.96833 508.3492,263.46708 503.23703,268.82862 C 498.12486,274.19016 487.77583,278.80358 487.77583,278.80358 C 487.77583,278.80358 486.40427,271.69642 478.29961,269.82611 C 473.44897,268.70673 469.32214,271.32236 469.32214,271.32236 z "
     id="path26867"
     sodipodi:nodetypes="cssssscsc" />
  <path
     style="fill:#f27600;fill-opacity:1;fill-rule:evenodd;stroke:#000000;stroke-width:3;stroke-linecap:butt;stroke-linejoin:miter;stroke-opacity:1;stroke-miterlimit:4;stroke-dasharray:none"
     d="M 490.26957,277.30734 C 490.26957,277.30734 498.62361,271.69641 506.22952,272.31985 C 513.83543,272.94329 519.44635,271.82111 519.69572,282.79357 C 519.94509,293.76603 515.18658,309.6344 507.22701,316.2097 C 501.49141,320.94781 501.36672,317.83064 494.75831,315.71096 C 488.1499,313.59128 485.28209,311.84566 480.79335,307.73098 C 476.30461,303.61631 476.80337,299.25226 476.80337,299.25226 C 476.80337,299.25226 487.90052,296.75852 491.26707,291.27229 C 494.63362,285.78606 490.26957,277.30734 490.26957,277.30734 z "
     id="path26869"
     sodipodi:nodetypes="cssssscsc" />
  <path
     sodipodi:type="arc"
     style="fill:#be0004;fill-opacity:1;fill-rule:evenodd;stroke:#000000;stroke-width:3;stroke-linecap:round;stroke-linejoin:bevel;stroke-miterlimit:4;stroke-dasharray:none;stroke-opacity:1"
     id="path27744"
     sodipodi:cx="157.60446"
     sodipodi:cy="308.22974"
     sodipodi:rx="15.461197"
     sodipodi:ry="12.468707"
     d="M 173.06566 308.22974 A 15.461197 12.468707 0 1 1  142.14326,308.22974 A 15.461197 12.468707 0 1 1  173.06566 308.22974 z"
     transform="matrix(1.058495,0,0,1.340802,309.4811,-126.99)" />
  <path
     style="fill:#f27600;fill-opacity:1;fill-rule:evenodd;stroke:#000000;stroke-width:3;stroke-linecap:butt;stroke-linejoin:miter;stroke-opacity:1;stroke-miterlimit:4;stroke-dasharray:none"
     d="M 563.58557,319.70094 C 560.09433,320.19969 549.62062,325.93529 541.1419,325.68592 C 532.66318,325.43655 531.41631,325.43655 529.67069,318.70345 C 527.92507,311.97035 529.29662,308.35442 534.15942,298.75351 C 539.02221,289.1526 542.38877,283.54169 549.12187,280.29983 C 555.85497,277.05797 556.35372,281.42201 561.09183,285.78606 C 565.82994,290.15011 568.0743,297.75602 568.0743,297.75602 C 568.0743,297.75602 560.71776,299.75101 559.59558,305.23724 C 558.4734,310.72347 563.58557,319.70094 563.58557,319.70094 z "
     id="path27746"
     sodipodi:nodetypes="cssssscsc" />
  <path
     style="fill:#f27600;fill-opacity:1;fill-rule:evenodd;stroke:#000000;stroke-width:3;stroke-linecap:butt;stroke-linejoin:miter;stroke-opacity:1;stroke-miterlimit:4;stroke-dasharray:none"
     d="M 567.57556,295.76102 C 567.07681,293.26728 562.71276,281.79607 565.58056,273.31735 C 568.44836,264.83863 571.0668,261.97083 579.04677,261.84614 C 587.02674,261.72145 588.27361,267.95581 597.50045,272.8186 C 606.72729,277.6814 611.21603,276.43452 615.95414,281.29732 C 620.69225,286.16012 618.94663,287.03293 616.45289,292.26979 C 613.95915,297.50665 612.96165,299.37695 605.97917,302.24475 C 598.99669,305.11255 588.52298,303.741 588.52298,303.741 C 588.52298,303.741 588.2736,297.25727 583.03675,295.26228 C 577.79989,293.26728 567.57556,295.76102 567.57556,295.76102 z "
     id="path27748"
     sodipodi:nodetypes="csssssscsc" />
  <path
     style="fill:#f27600;fill-opacity:1;fill-rule:evenodd;stroke:#000000;stroke-width:3;stroke-linecap:butt;stroke-linejoin:miter;stroke-opacity:1;stroke-miterlimit:4;stroke-dasharray:none"
     d="M 587.02674,304.23975 C 589.52048,304.23975 602.862,301.74601 611.46541,303.741 C 620.06882,305.73599 621.56506,309.72598 619.94413,315.71096 C 618.32319,321.69594 611.09135,319.95031 604.98168,327.68091 C 598.87201,335.41151 601.11638,341.52118 595.50546,346.63335 C 589.89454,351.74552 589.02173,350.12458 582.538,348.12959 C 576.05427,346.1346 573.18647,345.51117 569.57055,338.65338 C 565.95463,331.79559 568.0743,320.69844 568.0743,320.69844 C 568.0743,320.69844 580.29364,322.31937 585.03175,318.2047 C 589.76986,314.09003 587.02674,304.23975 587.02674,304.23975 z "
     id="path27750"
     sodipodi:nodetypes="csssssscsc" />
  <path
     sodipodi:type="arc"
     style="fill:#be0004;fill-opacity:1;fill-rule:evenodd;stroke:#000000;stroke-width:3;stroke-linecap:round;stroke-linejoin:bevel;stroke-miterlimit:4;stroke-dasharray:none;stroke-opacity:1"
     id="path28625"
     sodipodi:cx="157.60446"
     sodipodi:cy="308.22974"
     sodipodi:rx="15.461197"
     sodipodi:ry="12.468707"
     d="M 173.06566 308.22974 A 15.461197 12.468707 0 1 1  142.14326,308.22974 A 15.461197 12.468707 0 1 1  173.06566 308.22974 z"
     transform="matrix(1.087884,0,0,1.322454,401.6064,-98.14298)" />
  <path
     style="fill:#000000;fill-opacity:1;fill-rule:evenodd;stroke:#000000;stroke-width:3;stroke-linecap:butt;stroke-linejoin:miter;stroke-opacity:1;stroke-miterlimit:4;stroke-dasharray:none"
     d="M 352.6683,230.99771 C 352.6683,230.99771 345.68483,204.69768 317.75414,203.48959 C 290.60286,202.31521 278.60796,224.29702 278.60796,224.29702 C 278.60796,224.29702 262.29704,205.60559 239.81444,208.42694 C 217.33183,211.24829 188.67754,235.5824 188.67754,235.5824 C 188.67754,235.5824 203.84228,190.79353 230.64507,164.34341 C 257.44786,137.89329 284.79141,130.27933 295.8887,129.78191 C 308.86618,129.20022 315.81446,131.89792 321.98616,136.83528 C 328.15785,141.77264 320.57548,149.53134 320.57548,149.53134 C 320.57548,149.53134 314.22746,153.41069 313.87479,157.99538 C 313.52212,162.58007 314.05112,166.28308 319.16481,167.87009 C 324.2785,169.4571 334.32955,164.34341 334.32955,164.34341 C 334.32955,164.34341 345.35044,157.73088 344.55693,147.768 C 343.76343,137.80512 335.74022,134.54294 333.62421,124.13922 C 331.5082,113.73551 330.09753,110.03249 336.09289,106.15314 C 342.08825,102.27379 346.93744,105.1833 355.13698,108.97448 C 363.33652,112.76566 360.51517,121.31787 368.89104,121.31787 C 377.26691,121.31787 379.20659,111.70766 388.64047,108.97448 C 398.07435,106.2413 402.83537,104.30163 406.62655,110.38516 C 410.41773,116.46869 406.07381,123.67528 401.33652,132.60325 C 399.04418,136.92344 392.16715,138.95129 390.40381,147.41533 C 388.64047,155.87937 389.43397,161.25756 396.75184,167.16475 C 404.06971,173.07194 409.35973,175.62879 419.67528,171.0441 C 425.22513,168.5775 423.11379,163.19724 421.43861,156.23204 C 419.76344,149.26684 413.58044,142.42599 412.97458,143.18331 C 412.62191,143.62414 411.8284,133.39676 418.2646,129.42924 C 424.70079,125.46172 433.253,126.34339 438.71936,127.31323 C 461.93633,131.43237 478.21821,134.01393 506.43168,162.93273 C 534.64514,191.85153 551.57322,242.98844 551.57322,242.98844 C 551.57322,242.98844 512.33887,215.56848 488.79826,211.60096 C 465.25765,207.63344 457.41078,227.11836 457.41078,227.11836 C 457.41078,227.11836 439.86553,205.78193 420.02794,206.6636 C 400.19035,207.54527 378.06042,230.64505 378.06042,230.64505 L 352.6683,230.99771 z "
     id="path28628"
     sodipodi:nodetypes="cscscssscsscsssssssssssssssscscscc" />
</svg>
